<?xml version="1.0" standalone="no"?>
<!DOCTYPE svg PUBLIC "-//W3C//DTD SVG 20010904//EN"
 "http://www.w3.org/TR/2001/REC-SVG-20010904/DTD/svg10.dtd">
<svg version="1.0" xmlns="http://www.w3.org/2000/svg"
 width="494.000000pt" height="494.000000pt" viewBox="0 0 494.000000 494.000000"
 preserveAspectRatio="xMidYMid meet">
<metadata>
Created by potrace 1.14, written by Peter Selinger 2001-2017
</metadata>
<g transform="translate(0.000000,494.000000) scale(0.100000,-0.100000)"
fill="#000000" stroke="none">
<path d="M2313 4329 c-422 -35 -836 -226 -1122 -518 -306 -313 -477 -697 -511
-1148 -31 -404 73 -811 291 -1140 264 -399 666 -669 1142 -765 100 -21 141
-23 372 -23 231 1 272 3 365 23 575 124 1012 466 1260 986 248 519 232 1160
-43 1661 -298 545 -818 877 -1448 925 -148 11 -159 11 -306 -1z m345 -220
c470 -51 862 -282 1112 -655 185 -277 270 -568 270 -924 0 -288 -50 -511 -170
-752 -218 -437 -633 -741 -1110 -813 -528 -79 -993 65 -1358 419 -208 202
-345 430 -427 711 -72 251 -75 602 -5 849 97 347 308 657 585 862 244 180 470
268 790 307 66 8 221 6 313 -4z"/>
<path d="M1670 3180 c-301 -81 -472 -314 -472 -640 0 -269 118 -482 328 -592
100 -53 179 -71 304 -71 195 0 337 66 485 224 55 59 147 187 161 224 4 10 23
-11 53 -58 126 -190 290 -327 448 -372 160 -45 363 -15 501 75 187 120 286
317 285 565 -2 203 -60 350 -193 484 -87 88 -162 130 -290 162 -165 42 -364 3
-497 -96 -101 -75 -202 -186 -264 -288 -19 -31 -37 -57 -40 -57 -3 0 -26 30
-51 68 -54 80 -181 218 -247 266 -108 80 -205 114 -341 121 -76 4 -110 1 -170
-15z m270 -222 c143 -44 269 -160 394 -365 l38 -62 -36 -66 c-178 -324 -436
-451 -687 -339 -253 114 -312 537 -103 738 105 100 256 136 394 94z m1348 -10
c70 -26 163 -113 197 -183 139 -295 -4 -629 -291 -675 -203 -33 -410 111 -577
401 l-27 45 43 75 c93 163 192 264 311 320 110 52 233 58 344 17z"/>
</g>
</svg>
